<svg width="100" height="100" viewBox="0 0 100 100" fill="none" xmlns="http://www.w3.org/2000/svg">
  <defs>
    <linearGradient id="brandGradient" x1="0%" y1="0%" x2="100%" y2="100%">
      <stop offset="0%" stop-color="#4f46e5" />
      <stop offset="100%" stop-color="#10b981" />
    </linearGradient>
  </defs>
  <rect width="100" height="100" rx="24" fill="url(#brandGradient)" />
  <path d="M30 40C30 34.4772 34.4772 30 40 30H60C65.5228 30 70 34.4772 70 40V45H40V55H60C65.5228 55 70 59.4772 70 65V70C70 75.5228 65.5228 80 60 80H40C34.4772 80 30 75.5228 30 70V40Z" fill="white" />
  <path d="M75 25L50 15L25 25L50 35L75 25Z" fill="#10b981" fill-opacity="0.8" />
  <path d="M50 35V45" stroke="white" stroke-width="2" stroke-linecap="round" />
</svg>
