<svg width="512" height="512" viewBox="0 0 512 512" fill="none" xmlns="http://www.w3.org/2000/svg">
  <defs>
    <linearGradient id="siba_grad" x1="0%" y1="0%" x2="100%" y2="100%">
      <stop offset="0%" style="stop-color:#6366f1;stop-opacity:1" />
      <stop offset="50%" style="stop-color:#10b981;stop-opacity:1" />
      <stop offset="100%" style="stop-color:#f59e0b;stop-opacity:1" />
    </linearGradient>
    <filter id="glow" x="-20%" y="-20%" width="140%" height="140%">
      <feGaussianBlur stdDeviation="15" result="blur" />
      <feComposite in="SourceGraphic" in2="blur" operator="over" />
    </filter>
  </defs>
  
  <!-- Outer Shield Container -->
  <rect x="40" y="40" width="432" height="432" rx="100" fill="url(#siba_grad)" fill-opacity="0.1" />
  <rect x="60" y="60" width="392" height="392" rx="90" stroke="url(#siba_grad)" stroke-width="4" stroke-dasharray="20 10" opacity="0.4" />
  
  <!-- Stylized S shape -->
  <path d="M340 180C340 146.863 313.137 120 280 120H200C166.863 120 140 146.863 140 180V220C140 253.137 166.863 280 200 280H312C345.137 280 372 306.863 372 340V362C372 395.137 345.137 422 312 422H210C176.863 422 150 395.137 150 362" stroke="url(#siba_grad)" stroke-width="50" stroke-linecap="round" stroke-linejoin="round" filter="url(#glow)" />
  
  <!-- Tech Diamond / Node -->
  <path d="M256 220 L286 250 L256 280 L226 250 Z" fill="white" />
</svg>
